# xmcd CD database file
#
# Track frame offsets:
#	150
#	12780
#	29557
#	43357
#	76695
#	94740
#	111845
#	120412
#	134610
#	144872
#	167100
#	174555
#	195585
#	208707
#	230817
#	239677
#
# Disc length: 3663 seconds
#
# Revision: 1
# Processed by: cddbd v1.5.2PL0 Copyright (c) Steve Scherf et al.
# Submitted via: CDex 1.70beta2
#
DISCID=de0e4d10
DTITLE=TheodosiiSpassov - DurugPut2
DYEAR=2002
DGENRE=Jazz
TTITLE0=DurugPut
TTITLE1=Spomen
TTITLE2=Razdyala
TTITLE3=GurbetchiiskiMohabet
TTITLE4=OvcharskiMelodii
TTITLE5=PravoPlovdivskoHoro
TTITLE6=BavnaMelodia
TTITLE7=BelchenskiRachenik
TTITLE8=Monolog
TTITLE9=MelodiiZaKavalIPrkestur
TTITLE10=LitovoiskaLyubenitsa
TTITLE11=NuhaVBupkan
TTITLE12=TatovataPabotilnitsa
TTITLE13=Bozadzhiyata
TTITLE14=ProviknalSeTodor
TTITLE15=BrazayaPyasuchnotoMomicheNadbyagvaneSDunava
EXTD=YEAR: 2002
EXTT0=
EXTT1=
EXTT2=
EXTT3=
EXTT4=
EXTT5=
EXTT6=
EXTT7=
EXTT8=
EXTT9=
EXTT10=
EXTT11=
EXTT12=
EXTT13=
EXTT14=
EXTT15=
PLAYORDER=
